HIERARCHY
ROOT hip
{
  OFFSET 0 0 0
  CHANNELS 6 Xposition Yposition Zposition Zrotation Yrotation Xrotation
  JOINT abdomen
  {
    OFFSET 0 20.6881 -0.73152
    CHANNELS 3 Zrotation Xrotation Yrotation
    JOINT chest
    {
      OFFSET 0 11.7043 -0.48768
      CHANNELS 3 Zrotation Xrotation Yrotation
      JOINT neck
      {
        OFFSET 0 22.1894 -2.19456
        CHANNELS 3 Zrotation Xrotation Yrotation
        JOINT head
        {
          OFFSET -0.24384 7.07133 1.2192
          CHANNELS 3 Zrotation Xrotation Yrotation
          JOINT leftEye
          {
            OFFSET 4.14528 8.04674 8.04672
            CHANNELS 3 Zrotation Xrotation Yrotation
            End Site
            {
              OFFSET 1 0 0
            }
          }
          JOINT rightEye
          {
            OFFSET -3.6576 8.04674 8.04672
            CHANNELS 3 Zrotation Xrotation Yrotation
            End Site
            {
              OFFSET 1 0 0
            }
          }
        }
      }
      JOINT rCollar
      {
        OFFSET -2.68224 19.2634 -4.8768
        CHANNELS 3 Zrotation Xrotation Yrotation
        JOINT rShldr
        {
          OFFSET -8.77824 -1.95073 1.46304
          CHANNELS 3 Zrotation Xrotation Yrotation
          JOINT rForeArm
          {
            OFFSET -28.1742 -1.7115 0.48768
            CHANNELS 3 Zrotation Xrotation Yrotation
            JOINT rHand
            {
              OFFSET -22.5879 0.773209 7.07136
              CHANNELS 3 Zrotation Xrotation Yrotation
              JOINT rThumb1
              {
                OFFSET -1.2192 -0.487915 3.41376
                CHANNELS 3 Zrotation Xrotation Yrotation
                JOINT rThumb2
                {
                  OFFSET -3.37035 -0.52449 3.41376
                  CHANNELS 3 Zrotation Xrotation Yrotation
                  End Site
                  {
                    OFFSET -1.78271 -1.18214 1.43049
                  }
                }
              }
              JOINT rIndex1
              {
                OFFSET -7.75947 0.938293 5.60832
                CHANNELS 3 Zrotation Xrotation Yrotation
                JOINT rIndex2
                {
                  OFFSET -2.54057 -0.884171 1.56538
                  CHANNELS 3 Zrotation Xrotation Yrotation
                  End Site
                  {
                    OFFSET -1.62519 -0.234802 1.16502
                  }
                }
              }
              JOINT rMid1
              {
                OFFSET -8.24714 1.18213 3.41376
                CHANNELS 3 Zrotation Xrotation Yrotation
                JOINT rMid2
                {
                  OFFSET -3.10165 -0.590103 1.0647
                  CHANNELS 3 Zrotation Xrotation Yrotation
                  End Site
                  {
                    OFFSET -2.48547 -0.328903 0.83742
                  }
                }
              }
              JOINT rRing1
              {
                OFFSET -8.82822 0.546677 1.51678
                CHANNELS 3 Zrotation Xrotation Yrotation
                JOINT rRing2
                {
                  OFFSET -2.60934 -0.819778 -0.0198488
                  CHANNELS 3 Zrotation Xrotation Yrotation
                  End Site
                  {
                    OFFSET -2.33842 -0.294052 0.168128
                  }
                }
              }
              JOINT rPinky1
              {
                OFFSET -8.27202 -0.0477905 -0.4584
                CHANNELS 3 Zrotation Xrotation Yrotation
                JOINT rPinky2
                {
                  OFFSET -1.82734 -0.647385 -0.700984
                  CHANNELS 3 Zrotation Xrotation Yrotation
                  End Site
                  {
                    OFFSET -1.69225 -0.51767 -0.607171
                  }
                }
              }
            }
          }
        }
      }
      JOINT lCollar
      {
        OFFSET 2.68224 19.2634 -4.8768
        CHANNELS 3 Zrotation Xrotation Yrotation
        JOINT lShldr
        {
          OFFSET 8.77824 -1.95073 1.46304
          CHANNELS 3 Zrotation Xrotation Yrotation
          JOINT lForeArm
          {
            OFFSET 28.1742 -1.7115 0.48768
            CHANNELS 3 Zrotation Xrotation Yrotation
            JOINT lHand
            {
              OFFSET 22.5879 0.773209 7.07136
              CHANNELS 3 Zrotation Xrotation Yrotation
              JOINT lThumb1
              {
                OFFSET 1.2192 -0.487915 3.41376
                CHANNELS 3 Zrotation Xrotation Yrotation
                JOINT lThumb2
                {
                  OFFSET 3.37035 -0.52449 3.41376
                  CHANNELS 3 Zrotation Xrotation Yrotation
                  End Site
                  {
                    OFFSET 1.78271 -1.18214 1.43049
                  }
                }
              }
              JOINT lIndex1
              {
                OFFSET 7.75947 0.938293 5.60832
                CHANNELS 3 Zrotation Xrotation Yrotation
                JOINT lIndex2
                {
                  OFFSET 2.54057 -0.884171 1.56538
                  CHANNELS 3 Zrotation Xrotation Yrotation
                  End Site
                  {
                    OFFSET 1.62519 -0.234802 1.16502
                  }
                }
              }
              JOINT lMid1
              {
                OFFSET 8.24714 1.18213 3.41376
                CHANNELS 3 Zrotation Xrotation Yrotation
                JOINT lMid2
                {
                  OFFSET 3.10165 -0.590103 1.0647
                  CHANNELS 3 Zrotation Xrotation Yrotation
                  End Site
                  {
                    OFFSET 2.48547 -0.328903 0.83742
                  }
                }
              }
              JOINT lRing1
              {
                OFFSET 8.82822 0.546677 1.51678
                CHANNELS 3 Zrotation Xrotation Yrotation
                JOINT lRing2
                {
                  OFFSET 2.60934 -0.819778 -0.0198488
                  CHANNELS 3 Zrotation Xrotation Yrotation
                  End Site
                  {
                    OFFSET 2.33842 -0.294052 0.168128
                  }
                }
              }
              JOINT lPinky1
              {
                OFFSET 8.27202 -0.0477905 -0.4584
                CHANNELS 3 Zrotation Xrotation Yrotation
                JOINT lPinky2
                {
                  OFFSET 1.82734 -0.647385 -0.700984
                  CHANNELS 3 Zrotation Xrotation Yrotation
                  End Site
                  {
                    OFFSET 1.69225 -0.51767 -0.607171
                  }
                }
              }
            }
          }
        }
      }
    }
  }
  JOINT rButtock
  {
    OFFSET -8.77824 4.35084 1.2192
    CHANNELS 3 Zrotation Xrotation Yrotation
    JOINT rThigh
    {
      OFFSET 0 -1.70687 -2.19456
      CHANNELS 3 Zrotation Xrotation Yrotation
      JOINT rShin
      {
        OFFSET 0 -36.8199 0.73152
        CHANNELS 3 Zrotation Xrotation Yrotation
        JOINT rFoot
        {
          OFFSET 0.73152 -45.1104 -5.12064
          CHANNELS 3 Zrotation Xrotation Yrotation
          End Site
          {
            OFFSET -1.1221 -3.69964 12.103
          }
        }
      }
    }
  }
  JOINT lButtock
  {
    OFFSET 8.77824 4.35084 1.2192
    CHANNELS 3 Zrotation Xrotation Yrotation
    JOINT lThigh
    {
      OFFSET 0 -1.70687 -2.19456
      CHANNELS 3 Zrotation Xrotation Yrotation
      JOINT lShin
      {
        OFFSET 0 -36.8199 0.73152
        CHANNELS 3 Zrotation Xrotation Yrotation
        JOINT lFoot
        {
          OFFSET -0.73152 -45.1104 -5.12064
          CHANNELS 3 Zrotation Xrotation Yrotation
          End Site
          {
            OFFSET 1.1221 -3.69964 12.103
          }
        }
      }
    }
  }
}
MOTION
Frames:	5
Frame Time:	0.03333
0.0 0.0 0.0 0.0 0.0 0.0 0.0 0.0 0.0 0.0 0.0 0.0 0.0 0.0 0.0 0.0 0.0 0.0 0.0 0.0 0.0 0.0 0.0 0.0 0.0 0.0 0.0 0.0 0.0 0.0 0.0 0.0 0.0 0.0 0.0 0.0 0.0 0.0 0.0 0.0 0.0 0.0 0.0 0.0 0.0 0.0 0.0 0.0 0.0 0.0 0.0 0.0 0.0 0.0 0.0 0.0 0.0 0.0 0.0 0.0 0.0 0.0 0.0 0.0 0.0 0.0 0.0 0.0 0.0 0.0 0.0 0.0 0.0 0.0 0.0 0.0 0.0 0.0 0.0 0.0 0.0 0.0 0.0 0.0 0.0 0.0 0.0 0.0 0.0 0.0 0.0 0.0 0.0 0.0 0.0 0.0 0.0 0.0 0.0 0.0 0.0 0.0 0.0 0.0 0.0 0.0 0.0 0.0 0.0 0.0 0.0 0.0 0.0 0.0 0.0 0.0 0.0 0.0 0.0 0.0 0.0 0.0 0.0 0.0 0.0 0.0 0.0 0.0 0.0 0.0 0.0 0.0
-0.3554 68.1306 0.0291 -0.26167 -6.237946 -0.353319 -1.409258 0.020812 89.912378 -6.133832 7.047107 37.003422 -11.102267 -13.144735 -70.828922 43.114391 32.080748 106.000668 52.657261 -24.804265 -47.918935 -11.729587 -1.062036 10.311611 -14.672343 63.564753 95.762742 8.722737 16.401214 11.552326 91.615689 86.154913 70.748947 -107.004165 76.452534 85.29322 -174.668673 25.780532 116.503307 -29.623665 28.603605 4.884955 -32.374535 -19.412705 -26.434919 78.583172 -76.365158 9.206683 -174.968925 -41.475599 152.735991 1.819904 12.785526 9.611616 71.742351 78.99811 91.030607 -95.40169 -28.20401 -170.978654 -14.87358 4.156973 -130.507347 -102.943941 -57.597927 -65.763935 -66.038148 36.314692 -15.646975 160.527641 -1.493175 -171.959873 79.4667 -84.292118 -76.146433 -9.466838 -20.690438 0.551316 0.64735 -4.959826 24.032312 -126.042139 35.65295 93.435018 20.41729 45.354441 -4.345414 173.251241 -16.273491 -55.8095 1.056046 -1.908157 -0.23635 -179.877899 -5.064295 -138.909992 -155.982102 14.381795 40.079305 -38.209719 -13.651 -69.472424 -122.85422 -35.912025 16.522507 0.446615 1.204109 25.272593 35.230558 -39.481478 47.34778 -0.26862 51.140446 -178.22474 -2.963645 5.567675 -143.978156 -30.831126 -62.412655 150.647062 -53.154581 -0.919636 -89.450752 0.605725 52.002079 179.231364 7.829584 -3.394578 70.56886 74.554585 42.901325 -91.238448
-0.4858 69.7094 0.4653 -175.148645 32.300142 -172.701964 -0.329143 -4.963935 166.679022 -8.350559 6.009896 -160.23224 -7.429061 13.855693 -65.733584 24.219127 -4.299729 53.352142 2.719045 -0.157437 -6.626382 -8.181108 4.077222 -52.922125 -54.439196 -81.514905 -80.880826 12.102367 36.836306 1.201247 -142.368563 -19.083055 115.245434 -175.667138 -11.415889 153.791945 105.348638 -64.351594 41.181777 -38.555934 -30.03411 -13.743012 -51.610219 -77.223013 -104.118934 -171.656491 -7.988412 96.839217 13.405172 35.141873 -4.467309 -12.991495 71.68464 -30.419573 -71.35828 81.007042 76.102913 26.783168 42.986038 -13.599867 -154.865868 -15.248388 -100.627977 -138.026598 39.898712 -85.898739 -4.649545 -26.424998 -2.283671 107.553803 52.191468 -74.434679 153.894034 -59.36644 101.024912 -9.263448 -19.800207 1.778774 4.201569 -14.84041 6.974324 137.403075 -45.988421 -131.380848 -165.86666 -42.290278 -125.747844 160.606241 -24.931497 -128.988319 127.457197 -86.986219 129.873173 5.066461 -43.774619 46.98175 108.771623 53.634064 -112.790314 -36.295388 28.747846 4.637995 -25.029182 -68.850668 -66.36071 -176.174795 5.798726 109.686231 -166.808508 75.930255 -13.584565 -177.871359 43.324681 -0.0 25.156793 40.77177 30.339871 -49.325521 55.284992 -22.847011 -65.572173 38.874595 -60.317005 84.349171 20.798051 92.012172 23.715032 41.385204 -5.988355 47.669575 -32.017513 -43.764459
-2.6116 64.64569999999999 -0.7275 -172.110845 8.439532 -174.536819 7.955744 6.388408 84.213163 -12.748676 -5.027473 -73.230595 -7.463207 14.304295 -78.868398 21.701914 3.173807 78.168769 -26.082676 -3.651863 15.672923 177.928648 1.807075 -82.20228 -28.469377 -85.451593 -53.175695 76.803201 74.730682 -77.785952 97.76007 -32.21086 59.772379 -114.850234 64.725267 98.662588 -5.733123 18.422921 -3.601 -9.871418 -60.150817 -57.604602 -12.443545 51.734886 -1.264681 -140.35954 69.584429 70.833808 -170.720869 -21.200604 140.703251 104.099901 -54.310041 98.333741 13.363054 43.276085 -8.811246 -79.551104 -78.066225 0.762923 17.824143 -88.506274 -2.501698 -46.217567 22.634888 24.138139 158.469804 -4.86351 -161.573824 110.507347 -19.515792 166.66276 34.658837 -61.318785 -36.810137 -10.531559 -47.526192 -1.331822 160.905516 -30.490237 -110.199453 109.699735 6.155765 -61.869632 20.768131 28.883467 15.647419 161.29387 -49.525024 -58.183436 77.648678 -77.551042 110.18424 -2.154045 35.718227 -20.35104 30.013169 8.926761 -5.779254 138.055672 61.878258 -160.23375 124.673832 -53.876574 99.486799 -7.545119 44.753437 9.823854 -3.792541 -17.448386 -12.466264 21.483627 -28.076415 10.883099 -6.331726 64.876439 -83.482811 45.857268 48.69349 45.125083 0.717004 4.214596 -0.972159 -12.178234 -14.81275 92.230344 39.730491 13.041168 147.888652 -95.701106 61.563561 139.875972
-4.8199 70.43390000000001 -2.4581 -176.130711 -6.569754 -174.397967 20.079118 -1.527291 -91.570639 7.751381 -9.116976 101.688695 7.205614 12.169692 60.28123 -17.771827 6.985783 -74.436902 6.273927 2.273609 39.808152 -12.965535 3.311281 -28.543424 4.313685 18.525928 5.39138 -135.450071 20.258282 162.217699 -167.376827 -41.995959 -116.683727 -10.873822 -3.179899 7.457188 114.725032 -80.359936 58.691082 -5.996308 -44.839795 -42.991249 -110.942302 79.400271 93.420799 68.055978 -74.470554 48.426148 -10.388789 6.414578 -14.771532 -4.919111 62.133028 19.25039 -143.30999 -10.265521 -169.37029 -166.401288 47.036508 -172.285231 14.467479 -46.102845 15.291301 122.196072 6.505687 -59.404864 -4.4321 -21.46968 6.158874 126.405257 38.469129 -83.296893 166.692149 -54.337847 106.987691 -0.026705 16.451135 5.480631 174.850652 -12.935455 -76.303243 87.802091 -1.997208 -81.066174 140.812467 36.94034 -146.446414 15.571967 16.836299 87.500542 178.3134 -5.068885 -145.952251 138.445594 -62.348538 -179.95278 170.485087 -2.156918 -167.582097 -115.378378 62.246704 122.576583 153.290678 41.489607 -160.798262 -93.84477 -65.901709 -91.057166 24.447254 -11.726422 -0.0 -9.311419 -45.777805 167.11304 -20.674256 -69.272149 -76.535961 -89.573363 -24.643701 -163.578562 -2.2362 -5.324697 -22.820691 -10.25265 -8.588902 -180.0 15.645745 -29.919236 144.507208 -12.865859 -25.080136 81.865233
